<svg viewBox="0 0 196 68" fill="none" xmlns="http://www.w3.org/2000/svg">
<path d="M11.256 20.064H2.01598C1.79998 20.064 1.63198 20.232 1.63198 20.448C1.63198 20.64 1.79998 20.832 2.01598 20.832C2.18398 20.832 2.99998 20.88 2.99998 21.816V34.224C2.99998 34.392 2.95198 35.232 2.01598 35.232C1.87198 35.232 1.72798 35.304 1.67998 35.424C1.60798 35.52 1.60798 35.712 1.67998 35.808C1.72798 35.928 1.84798 36 1.99198 36H2.01598H7.53598C7.67998 36 7.79998 35.928 7.87198 35.808C7.91998 35.712 7.91998 35.52 7.87198 35.424C7.79998 35.304 7.67998 35.232 7.53598 35.232C7.51198 35.232 7.05598 35.208 6.79198 34.944C6.62398 34.776 6.55198 34.536 6.55198 34.224V30.648C6.55198 30.552 6.62398 30.456 6.74398 30.456H11.256C15.168 30.456 17.4 28.608 17.4 25.368C17.4 23.592 16.704 22.1521 15.408 21.216C14.352 20.4721 12.888 20.064 11.256 20.064ZM6.74398 29.688C6.62398 29.688 6.55198 29.592 6.55198 29.496V21.024C6.55198 20.904 6.62398 20.832 6.74398 20.832H8.35198C12.072 20.832 13.872 22.32 13.872 25.368C13.872 28.344 12.168 29.688 8.35198 29.688H6.74398Z" fill="#003F78"/>
<path d="M48.08 35.232C47.432 35.232 47.024 35.04 46.496 34.056C46.376 33.816 45.776 32.712 44.984 31.2C44.984 31.152 44.96 31.128 44.936 31.104C42.8 27.024 39.224 20.256 39.224 20.256C39.152 20.136 39.032 20.064 38.888 20.064H38.144H38.072C38.048 20.064 38.024 20.064 38 20.088C37.904 20.112 37.832 20.184 37.808 20.256L30.944 33.2401C30.056 34.9441 29.648 35.232 28.928 35.232C28.712 35.232 28.544 35.4 28.544 35.616C28.544 35.832 28.712 36 28.928 36L32.456 36.024H32.48C32.696 36.024 32.864 35.856 32.864 35.64C32.864 35.424 32.696 35.256 32.48 35.256H32.456C31.928 35.232 31.544 35.112 31.4 34.872C31.256 34.632 31.328 34.1761 31.64 33.6001L32.624 31.704H41.648L42.848 34.008C43.04 34.392 43.064 34.704 42.944 34.896C42.824 35.112 42.488 35.232 42.032 35.232C41.816 35.232 41.648 35.4 41.648 35.616C41.648 35.832 41.816 36 42.032 36H48.08C48.296 36 48.464 35.832 48.464 35.616C48.464 35.4 48.296 35.232 48.08 35.232ZM41.24 30.9361H33.032L37.16 23.112C37.928 24.576 39.848 28.2481 41.24 30.9361Z" fill="#003F78"/>
<path d="M78.551 20.064L75.023 20.04H74.975C74.759 20.04 74.591 20.208 74.591 20.424C74.591 20.64 74.759 20.808 74.975 20.808H74.999C75.551 20.808 75.911 20.952 76.055 21.168C76.199 21.432 76.127 21.8881 75.815 22.4641L70.295 32.952C69.047 30.576 64.847 22.464 64.631 22.032C64.415 21.672 64.391 21.36 64.511 21.168C64.631 20.952 64.967 20.832 65.423 20.832C65.639 20.832 65.807 20.64 65.807 20.448C65.807 20.232 65.639 20.064 65.423 20.064H59.375C59.159 20.064 58.991 20.232 58.991 20.448C58.991 20.64 59.159 20.832 59.375 20.832C60.023 20.832 60.455 21 60.959 22.008C61.415 22.848 68.231 35.784 68.231 35.784C68.303 35.928 68.423 36 68.567 36H69.311C69.335 36 69.383 36 69.407 36C69.431 35.976 69.431 35.976 69.455 35.976C69.551 35.952 69.623 35.88 69.671 35.808C69.671 35.808 69.671 35.808 69.671 35.784L76.511 22.8241C77.399 21.1201 77.807 20.832 78.527 20.832C78.743 20.832 78.911 20.64 78.911 20.448C78.911 20.232 78.743 20.064 78.551 20.064Z" fill="#003F78"/>
<path d="M106.515 33.9601C105.747 34.7761 104.307 35.184 101.907 35.232H97.5872C97.4912 35.232 97.3952 35.136 97.3952 35.04V21.816C97.3952 20.88 98.2352 20.832 98.4032 20.832C98.6192 20.832 98.7872 20.64 98.7872 20.448C98.7872 20.232 98.6192 20.064 98.4032 20.064H92.8832C92.6672 20.064 92.4992 20.232 92.4992 20.448C92.4992 20.64 92.6672 20.832 92.8832 20.832C92.9792 20.832 93.8672 20.856 93.8672 21.816V34.224C93.8672 35.184 93.0512 35.232 92.8832 35.232C92.7392 35.232 92.5952 35.304 92.5472 35.424C92.4752 35.52 92.4752 35.712 92.5472 35.808C92.5952 35.928 92.7152 36 92.8832 36H105.243H105.555C105.651 36 105.747 35.9521 105.819 35.8801C105.891 35.8081 105.987 35.664 106.059 35.592L107.067 34.4881C107.211 34.3201 107.211 34.0801 107.067 33.9361C106.899 33.7921 106.659 33.7921 106.515 33.9601Z" fill="#003F78"/>
<path d="M161.145 20.064L157.617 20.04H157.569C157.353 20.04 157.185 20.208 157.185 20.424C157.185 20.64 157.353 20.808 157.569 20.808H157.593C158.145 20.808 158.505 20.952 158.649 21.168C158.793 21.432 158.721 21.8881 158.409 22.4641L152.889 32.952C151.641 30.576 147.441 22.464 147.225 22.032C147.009 21.672 146.985 21.36 147.105 21.168C147.225 20.952 147.561 20.832 148.017 20.832C148.233 20.832 148.401 20.64 148.401 20.448C148.401 20.232 148.233 20.064 148.017 20.064H141.969C141.753 20.064 141.585 20.232 141.585 20.448C141.585 20.64 141.753 20.832 141.969 20.832C142.617 20.832 143.049 21 143.553 22.008C144.009 22.848 150.825 35.784 150.825 35.784C150.897 35.928 151.017 36 151.161 36H151.905C151.929 36 151.977 36 152.001 36C152.025 35.976 152.025 35.976 152.049 35.976C152.145 35.952 152.217 35.88 152.265 35.808C152.265 35.808 152.265 35.808 152.265 35.784L159.105 22.8241C159.993 21.1201 160.401 20.832 161.121 20.832C161.337 20.832 161.505 20.64 161.505 20.448C161.505 20.232 161.337 20.064 161.145 20.064Z" fill="#003F78"/>
<path d="M191.564 35.232C190.916 35.232 190.508 35.04 189.98 34.056C189.86 33.816 189.26 32.712 188.468 31.2C188.468 31.152 188.444 31.128 188.42 31.104C186.284 27.024 182.708 20.256 182.708 20.256C182.636 20.136 182.516 20.064 182.372 20.064H181.628H181.556C181.532 20.064 181.508 20.064 181.484 20.088C181.388 20.112 181.316 20.184 181.292 20.256L174.428 33.2401C173.54 34.9441 173.132 35.232 172.412 35.232C172.196 35.232 172.028 35.4 172.028 35.616C172.028 35.832 172.196 36 172.412 36L175.94 36.024H175.964C176.18 36.024 176.348 35.856 176.348 35.64C176.348 35.424 176.18 35.256 175.964 35.256H175.94C175.412 35.232 175.028 35.112 174.884 34.872C174.74 34.632 174.812 34.1761 175.124 33.6001L176.108 31.704H185.132L186.332 34.008C186.524 34.392 186.548 34.704 186.428 34.896C186.308 35.112 185.972 35.232 185.516 35.232C185.3 35.232 185.132 35.4 185.132 35.616C185.132 35.832 185.3 36 185.516 36H191.564C191.78 36 191.948 35.832 191.948 35.616C191.948 35.4 191.78 35.232 191.564 35.232ZM184.724 30.9361H176.516L180.644 23.112C181.412 24.576 183.332 28.2481 184.724 30.9361Z" fill="#003F78"/>
<g filter="url(#filter0_i_1_214)">
<path d="M134.089 26.4783C134.089 31.737 129.368 36 123.544 36C117.721 36 113 31.737 113 26.4783C113 21.2196 117.721 16.9565 123.544 16.9565C129.368 16.9565 134.089 21.2196 134.089 26.4783Z" fill="#1D8BF0"/>
</g>
<g filter="url(#filter1_f_1_214)">
<path d="M121.132 20.6843C121.587 21.1583 121.289 22.0449 120.468 22.6646C119.646 23.2843 118.611 23.4025 118.156 22.9285C117.702 22.4545 117.999 21.5679 118.821 20.9482C119.643 20.3285 120.678 20.2103 121.132 20.6843Z" fill="white"/>
</g>
<g filter="url(#filter2_i_1_214)">
<path d="M139 9.91317C139 12.2184 136.737 14.0871 133.944 14.0871C131.152 14.0871 128.889 12.2184 128.889 9.91317C128.889 7.60798 131.152 5.73926 133.944 5.73926C136.737 5.73926 139 7.60798 139 9.91317Z" fill="#1D8BF0"/>
</g>
<g filter="url(#filter3_i_1_214)">
<path d="M123.689 1.82609C123.689 2.83461 122.783 3.65217 121.667 3.65217C120.55 3.65217 119.644 2.83461 119.644 1.82609C119.644 0.817567 120.55 0 121.667 0C122.783 0 123.689 0.817567 123.689 1.82609Z" fill="#1D8BF0"/>
</g>
<path d="M46.7607 57.2H48.6787C49.3134 57.2 49.8781 57.3073 50.3727 57.522C50.8767 57.7273 51.2734 58.0353 51.5627 58.446C51.8521 58.8567 51.9967 59.3653 51.9967 59.972C51.9967 60.532 51.8707 61.008 51.6187 61.4C51.3667 61.792 51.0214 62.1 50.5827 62.324C50.1441 62.548 49.6447 62.6833 49.0847 62.73L52.0947 67H51.5207L48.5667 62.744H47.2227V67H46.7607V57.2ZM48.6787 57.62H47.2227V62.324H48.6787C49.5187 62.324 50.2047 62.128 50.7367 61.736C51.2687 61.344 51.5347 60.756 51.5347 59.972C51.5347 59.188 51.2641 58.6 50.7227 58.208C50.1907 57.816 49.5094 57.62 48.6787 57.62Z" fill="#003F78"/>
<path d="M57.8924 57.2H62.9044V57.634H58.3544V61.372H62.6244V61.806H58.3544V66.566H62.9044V67H57.8924V57.2Z" fill="#003F78"/>
<path d="M69.3648 57.2H69.8128V67H69.3648V57.2Z" fill="#003F78"/>
<path d="M83.8579 57.2H84.3199V67.294L76.8579 58.166V67H76.3959V56.906L83.8579 66.076V57.2Z" fill="#003F78"/>
<path d="M90.9172 57.2H91.3652V67H90.9172V57.2Z" fill="#003F78"/>
<path d="M102.554 62.604V62.184H106.754C106.754 62.8373 106.647 63.4627 106.432 64.06C106.227 64.648 105.928 65.1707 105.536 65.628C105.144 66.0853 104.668 66.4493 104.108 66.72C103.548 66.9813 102.918 67.112 102.218 67.112C101.528 67.112 100.888 66.9907 100.3 66.748C99.7122 66.496 99.1989 66.146 98.7602 65.698C98.3309 65.25 97.9949 64.7227 97.7522 64.116C97.5096 63.5 97.3882 62.828 97.3882 62.1C97.3882 61.372 97.5096 60.7047 97.7522 60.098C97.9949 59.482 98.3309 58.95 98.7602 58.502C99.1989 58.054 99.7122 57.7087 100.3 57.466C100.888 57.214 101.528 57.088 102.218 57.088C103.124 57.088 103.903 57.2793 104.556 57.662C105.21 58.0447 105.746 58.5533 106.166 59.188L105.802 59.482C105.466 58.922 104.99 58.46 104.374 58.096C103.768 57.7227 103.049 57.536 102.218 57.536C101.388 57.536 100.646 57.732 99.9922 58.124C99.3389 58.5067 98.8209 59.0433 98.4382 59.734C98.0649 60.4153 97.8782 61.204 97.8782 62.1C97.8782 62.9773 98.0649 63.7613 98.4382 64.452C98.8116 65.1427 99.3249 65.684 99.9782 66.076C100.641 66.468 101.388 66.664 102.218 66.664C103.012 66.664 103.702 66.4773 104.29 66.104C104.878 65.7307 105.34 65.236 105.676 64.62C106.012 64.004 106.204 63.332 106.25 62.604H102.554Z" fill="#003F78"/>
<path d="M112.824 57.2H113.286V63.878C113.286 64.746 113.51 65.432 113.958 65.936C114.406 66.44 115.027 66.692 115.82 66.692C116.623 66.692 117.244 66.44 117.682 65.936C118.121 65.432 118.34 64.746 118.34 63.878V57.2H118.802V63.878C118.802 64.8487 118.546 65.6373 118.032 66.244C117.528 66.8413 116.791 67.14 115.82 67.14C114.859 67.14 114.117 66.8413 113.594 66.244C113.081 65.6373 112.824 64.8487 112.824 63.878V57.2Z" fill="#003F78"/>
<path d="M132.828 57.2H133.29V67.294L125.828 58.166V67H125.366V56.906L132.828 66.076V57.2Z" fill="#003F78"/>
<path d="M144.535 62.604V62.184H148.735C148.735 62.8373 148.628 63.4627 148.413 64.06C148.208 64.648 147.909 65.1707 147.517 65.628C147.125 66.0853 146.649 66.4493 146.089 66.72C145.529 66.9813 144.899 67.112 144.199 67.112C143.508 67.112 142.869 66.9907 142.281 66.748C141.693 66.496 141.18 66.146 140.741 65.698C140.312 65.25 139.976 64.7227 139.733 64.116C139.49 63.5 139.369 62.828 139.369 62.1C139.369 61.372 139.49 60.7047 139.733 60.098C139.976 59.482 140.312 58.95 140.741 58.502C141.18 58.054 141.693 57.7087 142.281 57.466C142.869 57.214 143.508 57.088 144.199 57.088C145.104 57.088 145.884 57.2793 146.537 57.662C147.19 58.0447 147.727 58.5533 148.147 59.188L147.783 59.482C147.447 58.922 146.971 58.46 146.355 58.096C145.748 57.7227 145.03 57.536 144.199 57.536C143.368 57.536 142.626 57.732 141.973 58.124C141.32 58.5067 140.802 59.0433 140.419 59.734C140.046 60.4153 139.859 61.204 139.859 62.1C139.859 62.9773 140.046 63.7613 140.419 64.452C140.792 65.1427 141.306 65.684 141.959 66.076C142.622 66.468 143.368 66.664 144.199 66.664C144.992 66.664 145.683 66.4773 146.271 66.104C146.859 65.7307 147.321 65.236 147.657 64.62C147.993 64.004 148.184 63.332 148.231 62.604H144.535Z" fill="#003F78"/>
<path fill-rule="evenodd" clip-rule="evenodd" d="M34 62L0 62L0 61L34 61V62Z" fill="#003F78" fill-opacity="0.4"/>
<path fill-rule="evenodd" clip-rule="evenodd" d="M196 62L162 62V61L196 61V62Z" fill="#003F78" fill-opacity="0.4"/>
<defs>
<filter id="filter0_i_1_214" x="85" y="-11.0435" width="49.0889" height="47.0435" filterUnits="userSpaceOnUse" color-interpolation-filters="sRGB">
<feFlood flood-opacity="0" result="BackgroundImageFix"/>
<feBlend mode="normal" in="SourceGraphic" in2="BackgroundImageFix" result="shape"/>
<feColorMatrix in="SourceAlpha" type="matrix" values="0 0 0 0 0 0 0 0 0 0 0 0 0 0 0 0 0 0 127 0" result="hardAlpha"/>
<feOffset dx="-28" dy="-28"/>
<feGaussianBlur stdDeviation="27"/>
<feComposite in2="hardAlpha" operator="arithmetic" k2="-1" k3="1"/>
<feColorMatrix type="matrix" values="0 0 0 0 0 0 0 0 0 0 0 0 0 0 0 0 0 0 0.25 0"/>
<feBlend mode="normal" in2="shape" result="effect1_innerShadow_1_214"/>
</filter>
<filter id="filter1_f_1_214" x="114.944" y="17.3936" width="9.40155" height="8.82568" filterUnits="userSpaceOnUse" color-interpolation-filters="sRGB">
<feFlood flood-opacity="0" result="BackgroundImageFix"/>
<feBlend mode="normal" in="SourceGraphic" in2="BackgroundImageFix" result="shape"/>
<feGaussianBlur stdDeviation="1.5" result="effect1_foregroundBlur_1_214"/>
</filter>
<filter id="filter2_i_1_214" x="100.889" y="-22.2607" width="38.1111" height="36.3479" filterUnits="userSpaceOnUse" color-interpolation-filters="sRGB">
<feFlood flood-opacity="0" result="BackgroundImageFix"/>
<feBlend mode="normal" in="SourceGraphic" in2="BackgroundImageFix" result="shape"/>
<feColorMatrix in="SourceAlpha" type="matrix" values="0 0 0 0 0 0 0 0 0 0 0 0 0 0 0 0 0 0 127 0" result="hardAlpha"/>
<feOffset dx="-28" dy="-28"/>
<feGaussianBlur stdDeviation="27"/>
<feComposite in2="hardAlpha" operator="arithmetic" k2="-1" k3="1"/>
<feColorMatrix type="matrix" values="0 0 0 0 0 0 0 0 0 0 0 0 0 0 0 0 0 0 0.25 0"/>
<feBlend mode="normal" in2="shape" result="effect1_innerShadow_1_214"/>
</filter>
<filter id="filter3_i_1_214" x="91.6444" y="-28" width="32.0444" height="31.6521" filterUnits="userSpaceOnUse" color-interpolation-filters="sRGB">
<feFlood flood-opacity="0" result="BackgroundImageFix"/>
<feBlend mode="normal" in="SourceGraphic" in2="BackgroundImageFix" result="shape"/>
<feColorMatrix in="SourceAlpha" type="matrix" values="0 0 0 0 0 0 0 0 0 0 0 0 0 0 0 0 0 0 127 0" result="hardAlpha"/>
<feOffset dx="-28" dy="-28"/>
<feGaussianBlur stdDeviation="27"/>
<feComposite in2="hardAlpha" operator="arithmetic" k2="-1" k3="1"/>
<feColorMatrix type="matrix" values="0 0 0 0 0 0 0 0 0 0 0 0 0 0 0 0 0 0 0.25 0"/>
<feBlend mode="normal" in2="shape" result="effect1_innerShadow_1_214"/>
</filter>
</defs>
</svg>
