<svg viewBox="0 0 383 187" fill="none" xmlns="http://www.w3.org/2000/svg">
<path d="M353.759 8.06537L354.407 6.17328L353.759 8.06537ZM8.47143 155.553L7.20555 157.102L8.47143 155.553ZM203.271 114.449L201.488 113.544L203.271 114.449ZM2.56818 148.144L4.36046 149.609L1.82871 152.706L0.0364283 151.241L2.56818 148.144ZM7.94502 152.54L9.7373 154.005L7.20555 157.102L5.41327 155.637L7.94502 152.54ZM9.7373 154.005C12.1203 155.953 14.5552 157.8 17.0366 159.546L14.7346 162.818C12.1747 161.016 9.66314 159.111 7.20555 157.102L9.7373 154.005ZM32.727 168.961C38.221 171.734 43.8683 174.076 49.6206 175.988L48.3587 179.784C42.4225 177.81 36.5945 175.394 30.9247 172.532L32.727 168.961ZM67.3607 180.478C73.3883 181.544 79.474 182.166 85.5667 182.347L85.4481 186.345C79.1625 186.158 72.8836 185.517 66.6644 184.417L67.3607 180.478ZM103.852 181.563C109.906 180.861 115.917 179.72 121.831 178.143L122.862 182.008C116.759 183.635 110.559 184.812 104.312 185.536L103.852 181.563ZM139.122 172.151C144.689 169.753 150.115 166.937 155.352 163.704L157.453 167.107C152.049 170.444 146.449 173.35 140.704 175.825L139.122 172.151ZM170.179 152.981C172.502 151.029 174.769 148.98 176.977 146.835L179.765 149.704C177.488 151.916 175.149 154.029 172.752 156.043L170.179 152.981ZM176.977 146.835C179.463 144.42 181.844 141.906 184.116 139.301L187.131 141.93C184.786 144.618 182.329 147.212 179.765 149.704L176.977 146.835ZM196.413 122.599C198.226 119.655 199.92 116.635 201.488 113.544L205.055 115.354C203.437 118.543 201.69 121.66 199.819 124.697L196.413 122.599ZM201.488 113.544L205.533 105.572L209.1 107.382L205.055 115.354L201.488 113.544ZM213.622 89.6287L221.712 73.685L225.279 75.4949L217.189 91.4386L213.622 89.6287ZM229.802 57.7413L233.847 49.7694L237.414 51.5793L233.369 59.5512L229.802 57.7413ZM233.923 49.6316C235.948 46.318 238.137 43.1538 240.475 40.1449L243.634 42.5992C241.387 45.4904 239.283 48.5315 237.337 51.7171L233.923 49.6316ZM256.557 23.6794C262.555 18.7884 269.057 14.6233 275.92 11.2356L277.691 14.8224C271.095 18.0781 264.847 22.0803 259.084 26.7794L256.557 23.6794ZM297.57 3.42639C305.015 1.6531 312.679 0.708528 320.418 0.644422L320.452 4.64427C313.016 4.70588 305.652 5.6134 298.497 7.31755L297.57 3.42639ZM343.308 3.05317C347.028 3.87679 350.733 4.91497 354.407 6.17328L353.111 9.95746C349.579 8.74777 346.018 7.75002 342.443 6.95862L343.308 3.05317ZM354.407 6.17328L361.454 8.58705L360.158 12.3712L353.111 9.95746L354.407 6.17328ZM375.548 13.4146L382.595 15.8284L381.299 19.6125L374.252 17.1988L375.548 13.4146Z" fill="#DAEDFE"/>
</svg>
