<svg viewBox="0 0 499 429" fill="none" xmlns="http://www.w3.org/2000/svg">
<path d="M497.841 404.956C499.218 403.599 499.235 401.383 497.878 400.006L475.772 377.565C474.416 376.188 472.2 376.172 470.823 377.528C469.446 378.885 469.429 381.101 470.785 382.478L490.435 402.425L470.488 422.075C469.111 423.431 469.094 425.647 470.45 427.024C471.807 428.401 474.023 428.418 475.4 427.062L497.841 404.956ZM243.413 207.137L246.723 206L246.701 205.934L246.675 205.869L243.413 207.137ZM263.998 267.089L267.308 265.952L263.998 267.089ZM451.654 402.134L451.628 405.633L451.654 402.134ZM215.995 136.563L212.732 137.83L215.995 136.563ZM0.512424 7.00206L14.1599 8.79054L15.0695 1.84989L1.42199 0.0613988L0.512424 7.00206ZM41.4549 12.3675L55.1024 14.156L56.0119 7.21535L42.3644 5.42686L41.4549 12.3675ZM55.1024 14.156C58.5912 14.6132 62.054 15.1619 65.4882 15.7998L66.7666 8.91749C63.2103 8.25689 59.6244 7.68876 56.0119 7.21535L55.1024 14.156ZM85.9129 20.7363C92.6562 22.7536 99.2571 25.1238 105.692 27.8282L108.404 21.3749C101.74 18.574 94.9031 16.1193 87.9192 14.03L85.9129 20.7363ZM124.601 36.9951C130.744 40.3903 136.693 44.108 142.424 48.129L146.445 42.3989C140.51 38.2348 134.349 34.3847 127.988 30.8686L124.601 36.9951ZM158.957 61.1006C164.226 65.71 169.253 70.6035 174.012 75.762L179.157 71.0153C174.228 65.673 169.022 60.6053 163.566 55.832L158.957 61.1006ZM187.415 91.9469C191.573 97.5536 195.446 103.401 199.01 109.471L205.046 105.926C201.355 99.6399 197.344 93.5839 193.038 87.7772L187.415 91.9469ZM208.664 128.134C210.101 131.318 211.458 134.551 212.732 137.83L219.257 135.295C217.938 131.899 216.533 128.552 215.045 125.255L208.664 128.134ZM212.732 137.83L216.159 146.652L222.684 144.117L219.257 135.295L212.732 137.83ZM223.014 164.296L229.869 181.939L236.394 179.404L229.539 161.761L223.014 164.296ZM236.723 199.583L240.151 208.404L246.675 205.869L243.248 197.048L236.723 199.583ZM240.103 208.273L242.676 215.767L249.296 213.494L246.723 206L240.103 208.273ZM247.822 230.755L252.968 245.743L259.589 243.47L254.443 228.482L247.822 230.755ZM258.114 260.731L260.687 268.225L267.308 265.952L264.735 258.458L258.114 260.731ZM260.687 268.225C261.824 271.535 263.04 274.802 264.334 278.023L270.829 275.414C269.58 272.304 268.406 269.149 267.308 265.952L260.687 268.225ZM273.101 296.983C276.364 303.184 279.929 309.177 283.773 314.949L289.599 311.069C285.888 305.496 282.446 299.709 279.295 293.723L273.101 296.983ZM296.233 331.719C300.681 337.104 305.394 342.244 310.349 347.121L315.26 342.133C310.476 337.423 305.925 332.46 301.629 327.261L296.233 331.719ZM325.969 360.996C331.409 365.35 337.069 369.424 342.926 373.199L346.719 367.315C341.063 363.67 335.597 359.736 330.343 355.531L325.969 360.996ZM361.044 383.603C367.242 386.752 373.613 389.588 380.132 392.096L382.645 385.563C376.351 383.141 370.199 380.403 364.214 377.362L361.044 383.603ZM399.991 398.584C406.685 400.396 413.5 401.872 420.416 402.997L421.54 396.088C414.863 395.002 408.282 393.576 401.82 391.827L399.991 398.584ZM441.18 405.288C444.645 405.491 448.128 405.607 451.628 405.633L451.681 398.634C448.3 398.608 444.936 398.496 441.59 398.3L441.18 405.288ZM451.628 405.633L462.56 405.716L462.613 398.716L451.681 398.634L451.628 405.633ZM484.426 405.88L495.358 405.962L495.411 398.962L484.478 398.88L484.426 405.88Z" fill="#DAEDFE"/>
</svg>
