<svg width="101" height="97" viewBox="0 0 101 97" fill="none" xmlns="http://www.w3.org/2000/svg">
<path d="M11.0469 39.0273C11.0482 37.9223 11.5058 36.8629 12.3194 36.0815C13.133 35.3001 14.2361 34.8606 15.3867 34.8594H31.957C33.1076 34.8606 34.2107 35.3001 35.0243 36.0815C35.8379 36.8629 36.2956 37.9223 36.2969 39.0273V46.9844H39.4531V39.0273C39.4509 37.1187 38.6604 35.2888 37.2551 33.9391C35.8498 32.5895 33.9444 31.8303 31.957 31.8281H31.5625V23.1133C31.5614 22.2092 31.187 21.3424 30.5213 20.7031C29.8556 20.0638 28.9531 19.7042 28.0117 19.7031H19.332C18.3906 19.7042 17.4881 20.0638 16.8224 20.7031C16.1568 21.3424 15.7823 22.2092 15.7812 23.1133V31.8281H15.3867C13.3993 31.8303 11.494 32.5895 10.0887 33.9391C8.68338 35.2888 7.89289 37.1187 7.89062 39.0273V48.5H11.0469V39.0273ZM18.9375 23.1133C18.9376 23.0128 18.9792 22.9165 19.0532 22.8455C19.1272 22.7744 19.2274 22.7345 19.332 22.7344H28.0117C28.1163 22.7345 28.2166 22.7744 28.2906 22.8455C28.3645 22.9165 28.4061 23.0128 28.4062 23.1133V31.8281H18.9375V23.1133Z" fill="#339DFF"/>
<path d="M33.1406 48.5V42.8164C33.1395 41.9123 32.7651 41.0455 32.0994 40.4062C31.4338 39.7669 30.5312 39.4073 29.5898 39.4062H17.7539C16.8125 39.4073 15.91 39.7669 15.2443 40.4062C14.5786 41.0455 14.2042 41.9123 14.2031 42.8164V48.5H17.3594V42.8164C17.3595 42.7159 17.4011 42.6196 17.4751 42.5486C17.549 42.4776 17.6493 42.4376 17.7539 42.4375H29.5898C29.6944 42.4376 29.7947 42.4776 29.8687 42.5486C29.9426 42.6196 29.9843 42.7159 29.9844 42.8164V48.5H33.1406Z" fill="#339DFF"/>
<path d="M14.2031 78.8125C13.2668 78.8125 12.3514 79.0792 11.5728 79.5788C10.7943 80.0784 10.1875 80.7885 9.82914 81.6194C9.4708 82.4502 9.37704 83.3644 9.55972 84.2464C9.7424 85.1284 10.1933 85.9386 10.8554 86.5745C11.5175 87.2104 12.3611 87.6434 13.2795 87.8189C14.1979 87.9943 15.1498 87.9043 16.0149 87.5601C16.88 87.216 17.6194 86.6332 18.1396 85.8855C18.6598 85.1378 18.9375 84.2587 18.9375 83.3594C18.9361 82.1539 18.4368 80.9982 17.5493 80.1458C16.6617 79.2933 15.4583 78.8139 14.2031 78.8125ZM14.2031 84.875C13.891 84.875 13.5859 84.7861 13.3264 84.6196C13.0668 84.453 12.8646 84.2163 12.7451 83.9394C12.6257 83.6624 12.5944 83.3577 12.6553 83.0637C12.7162 82.7697 12.8665 82.4996 13.0872 82.2877C13.3079 82.0757 13.5891 81.9314 13.8953 81.8729C14.2014 81.8144 14.5187 81.8444 14.8071 81.9591C15.0954 82.0738 15.3419 82.2681 15.5153 82.5173C15.6887 82.7666 15.7813 83.0596 15.7813 83.3594C15.7808 83.7612 15.6144 84.1464 15.3185 84.4306C15.0226 84.7147 14.6215 84.8745 14.2031 84.875Z" fill="#339DFF"/>
<path d="M38.0091 30.9241C38.0979 31.1175 38.2279 31.2909 38.3906 31.4332C38.5533 31.5755 38.7452 31.6835 38.954 31.7504L43.6884 33.266C43.9834 33.3604 44.3008 33.369 44.6009 33.2907C44.9009 33.2125 45.1702 33.0508 45.375 32.8261L53.6562 23.7368V26.8035L42.8946 41.5683C42.7089 41.8231 42.6093 42.1265 42.6093 42.4375V46.9844H45.7656V42.9152L56.0559 28.7969H63.5289L67.8593 42.6599V48.5H71.0156V42.4375C71.0156 42.29 70.9931 42.1433 70.949 42.002L66.2812 27.0588V21.2188V21.2143C66.2812 21.2044 66.2811 21.1944 66.2808 21.1845L66.2806 21.1774C66.2804 21.167 66.2799 21.1566 66.2794 21.1463L66.2787 21.1327L66.2775 21.115C66.2767 21.1032 66.2757 21.0915 66.2746 21.0797L66.2743 21.0764C66.2528 20.8539 66.18 20.6388 66.0612 20.4466L59.7608 9.85747C59.6228 9.62547 59.4233 9.43263 59.1827 9.29851C58.9421 9.16438 58.6688 9.09374 58.3906 9.09375H39.4531C39.0345 9.09375 38.6331 9.25343 38.3372 9.53767C38.0412 9.8219 37.8749 10.2074 37.8749 10.6094V15.1562C37.8749 15.4744 37.9792 15.7844 38.1728 16.0425C38.3665 16.3006 38.6398 16.4936 38.954 16.5942L41.2651 17.334L41.1441 17.6247C41.0604 17.8256 41.0225 18.0413 41.0329 18.2574C41.0432 18.4735 41.1017 18.6849 41.2042 18.8775C41.3067 19.0701 41.451 19.2394 41.6274 19.374C41.8037 19.5086 42.008 19.6054 42.2265 19.6578L42.6137 19.7508L38.0109 29.6971C37.9216 29.8902 37.8753 30.0991 37.8749 30.3104C37.8746 30.5218 37.9203 30.7308 38.0091 30.9241ZM56.8125 25.7656V22.7344H63.125V25.7656H56.8125ZM46.834 12.125H57.4747L61.9836 19.7031H55.4285L44.746 17.1383L46.834 12.125ZM41.0312 14.0637V12.125H43.4347L42.4394 14.5145L41.0312 14.0637ZM45.7224 20.4971L51.213 21.8154L43.6909 30.0716L41.6011 29.4026L45.7224 20.4971Z" fill="#339DFF"/>
<path d="M97.5787 77.9718L88.6956 65.1748C88.3718 64.7073 87.9325 64.3239 87.417 64.059C86.9015 63.794 86.3258 63.6556 85.7411 63.6562H83.6406V16.6719H80.4844V63.6562H77.3281V6.44141C77.3282 6.34095 77.3698 6.24464 77.4438 6.17361C77.5178 6.10257 77.6181 6.06262 77.7227 6.0625H80.0898C80.1944 6.06262 80.2947 6.10257 80.3687 6.17361C80.4427 6.24464 80.4843 6.34095 80.4844 6.44141V13.6406H83.6406V6.44141C83.6395 5.53729 83.2651 4.67051 82.5994 4.0312C81.9338 3.3919 81.0312 3.03228 80.0898 3.03125H77.7227C76.7813 3.03228 75.8787 3.3919 75.2131 4.0312C74.5474 4.67051 74.173 5.53729 74.1719 6.44141V51.5312H56.8125C56.8125 51.1293 56.6462 50.7438 56.3503 50.4595C56.0543 50.1753 55.6529 50.0156 55.2344 50.0156H28.4062C27.9877 50.0156 27.5863 50.1753 27.2903 50.4595C26.9944 50.7438 26.8281 51.1293 26.8281 51.5312H4.73438C4.31583 51.5312 3.91443 51.6909 3.61847 51.9752C3.32252 52.2594 3.15625 52.6449 3.15625 53.0469V55.3203C3.15789 56.7267 3.74035 58.0751 4.77584 59.0696C5.81133 60.064 7.21528 60.6234 8.67969 60.625H9.46875V66.6875H12.625V60.625H26.8281V78.8125C26.8281 79.2145 26.9944 79.6 27.2903 79.8842C27.5863 80.1684 27.9877 80.3281 28.4062 80.3281H47.3438V77.2969H29.9844V72.75H53.6562V77.2969H50.5V80.3281H55.2344C55.6529 80.3281 56.0543 80.1684 56.3503 79.8842C56.6462 79.6 56.8125 79.2145 56.8125 78.8125V60.625H74.1719V63.6562H72.0714C71.4867 63.6556 70.911 63.794 70.3955 64.059C69.88 64.3239 69.4407 64.7073 69.1169 65.1748L60.2338 77.9718C60.061 78.2208 59.9687 78.5133 59.9688 78.8125V90.9375H21.9269C23.5907 89.3723 24.6969 87.342 25.0872 85.1369C25.4776 82.9317 25.1323 80.6645 24.1005 78.6591C23.0688 76.6538 21.4034 75.0129 19.3424 73.9711C17.2815 72.9292 14.9303 72.5396 12.625 72.858V69.7188H9.46875V73.7745C7.20262 74.8068 5.36973 76.549 4.27151 78.7146C3.1733 80.8802 2.87513 83.3402 3.42606 85.6902C3.97699 88.0401 5.34421 90.1401 7.30286 91.6446C9.26152 93.1492 11.695 93.9689 14.2031 93.9688C14.4684 93.9688 14.7314 93.9598 14.9922 93.9419V93.9688H96.2656C96.6842 93.9688 97.0856 93.8091 97.3815 93.5248C97.6775 93.2406 97.8438 92.8551 97.8438 92.4531V78.8125C97.8438 78.5133 97.7515 78.2208 97.5787 77.9718V77.9718ZM53.6562 53.0469V63.6562H29.9844V53.0469H53.6562ZM8.67969 57.5938C8.05209 57.5931 7.45039 57.3533 7.00661 56.9271C6.56282 56.5009 6.3132 55.9231 6.3125 55.3203V54.5625H26.8281V57.5938H8.67969ZM29.9844 69.7188V66.6875H53.6562V69.7188H29.9844ZM56.8125 57.5938V54.5625H74.1719V57.5938H56.8125ZM6.3125 83.3594C6.3125 81.8606 6.77528 80.3954 7.64231 79.1492C8.50934 77.903 9.74169 76.9317 11.1835 76.3581C12.6253 75.7845 14.2119 75.6345 15.7425 75.9269C17.2731 76.2193 18.6791 76.941 19.7826 78.0008C20.8862 79.0607 21.6377 80.4109 21.9421 81.881C22.2466 83.351 22.0903 84.8747 21.4931 86.2594C20.8959 87.6441 19.8845 88.8277 18.5869 89.6604C17.2893 90.4931 15.7637 90.9375 14.2031 90.9375C12.1111 90.9352 10.1055 90.1361 8.62623 88.7154C7.14697 87.2947 6.31488 85.3685 6.3125 83.3594V83.3594ZM71.743 66.8562C71.779 66.8043 71.8279 66.7617 71.8852 66.7322C71.9425 66.7028 72.0064 66.6874 72.0714 66.6875H85.7411C85.8061 66.6874 85.87 66.7028 85.9273 66.7322C85.9846 66.7617 86.0335 66.8043 86.0695 66.8562L94.369 78.8125H63.4435L71.743 66.8562ZM88.375 90.9375V84.875H85.2188V90.9375H80.4844V84.875H77.3281V90.9375H72.5938V84.875H69.4375V90.9375H63.125V81.8438H94.6875V90.9375H88.375Z" fill="#339DFF"/>
<path d="M72.5938 71.2344H75.75V74.2656H72.5938V71.2344Z" fill="#339DFF"/>
<path d="M82.0625 71.2344H85.2188V74.2656H82.0625V71.2344Z" fill="#339DFF"/>
<path d="M89.9531 24.25H93.1094V27.2812H89.9531V24.25Z" fill="#339DFF"/>
<path d="M89.9531 30.3125H93.1094V33.3438H89.9531V30.3125Z" fill="#339DFF"/>
<path d="M86.7969 27.2812H89.9531V30.3125H86.7969V27.2812Z" fill="#339DFF"/>
<path d="M93.1094 27.2812H96.2656V30.3125H93.1094V27.2812Z" fill="#339DFF"/>
<path d="M11.0469 7.57812H14.2031V10.6094H11.0469V7.57812Z" fill="#339DFF"/>
<path d="M11.0469 13.6406H14.2031V16.6719H11.0469V13.6406Z" fill="#339DFF"/>
<path d="M7.89062 10.6094H11.0469V13.6406H7.89062V10.6094Z" fill="#339DFF"/>
<path d="M14.2031 10.6094H17.3594V13.6406H14.2031V10.6094Z" fill="#339DFF"/>
</svg>
