<svg width="48" height="48" viewBox="0 0 48 48" fill="none" xmlns="http://www.w3.org/2000/svg">
<path d="M43.4285 22.7812C43.4285 22.2634 42.9169 21.8438 42.2856 21.8438C41.6544 21.8438 41.1428 22.2634 41.1428 22.7812C41.1428 25.883 38.0669 28.4062 34.2856 28.4062C33.6544 28.4062 33.1428 28.8259 33.1428 29.3437C33.1428 29.8615 33.6544 30.2812 34.2856 30.2812C39.3271 30.2812 43.4285 26.9168 43.4285 22.7812Z" fill="#339DFF"/>
<path d="M19.6186 31.9193C19.0146 32.6667 13.7141 39.3032 13.7141 42.0937C13.7141 45.2952 16.8543 48 20.5713 48C24.2882 48 27.4284 45.2952 27.4284 42.0937C27.4284 39.3032 22.128 32.6667 21.524 31.9193C21.3119 31.6575 20.9543 31.5 20.5713 31.5C20.1882 31.5 19.8307 31.6575 19.6186 31.9193ZM25.1427 42.0937C25.1427 44.2412 23.0066 46.125 20.5713 46.125C18.136 46.125 15.9999 44.2412 15.9999 42.0937C15.9999 40.649 18.5101 36.8785 20.5713 34.1715C22.6324 36.8785 25.1427 40.649 25.1427 42.0937Z" fill="#339DFF"/>
<path d="M8 15.5625C7.62456 15.5625 7.27322 15.7137 7.05982 15.9672C6.33706 16.8252 0 24.4464 0 27.75C0 31.3685 3.58884 34.3125 8 34.3125C12.4112 34.3125 16 31.3685 16 27.75C16 24.4464 9.66295 16.8252 8.94018 15.9672C8.72679 15.7137 8.37545 15.5625 8 15.5625ZM8 32.4375C4.84911 32.4375 2.28572 30.3347 2.28572 27.75C2.28572 25.9369 5.4817 21.334 8 18.1809C10.5183 21.3336 13.7143 25.9358 13.7143 27.75C13.7143 30.3347 11.1509 32.4375 8 32.4375Z" fill="#339DFF"/>
<path d="M22.8569 21.8439C22.8569 22.3618 22.3453 22.7816 21.7141 22.7816C21.0828 22.7816 20.5712 22.3618 20.5712 21.8439C20.5712 21.326 21.0828 20.9062 21.7141 20.9062C22.3453 20.9062 22.8569 21.326 22.8569 21.8439Z" fill="#339DFF"/>
<path d="M35.2492 0.432861C35.0389 0.16333 34.676 0 34.2858 0C33.8956 0 33.5327 0.16333 33.3224 0.432861C32.9934 0.855834 25.2251 10.868 21.9822 17.9268C21.7595 18.4112 22.0581 18.9521 22.6487 19.1345C23.2389 19.3173 23.8983 19.0726 24.1211 18.5881C26.6184 13.1514 32.076 5.65393 34.2889 2.7052C38.1961 7.88818 45.7144 18.7038 45.7144 22.7812C45.7144 27.9507 40.5876 32.1562 34.2858 32.1562C29.1836 32.1562 24.6586 29.3456 23.2813 25.3209C23.1108 24.8225 22.48 24.5317 21.872 24.6716C21.2644 24.8115 20.9104 25.3293 21.0804 25.8277C22.7336 30.6577 28.1639 34.0312 34.2858 34.0312C41.8479 34.0312 48.0001 28.9845 48.0001 22.7812C48.0001 17.6136 38.509 4.61389 35.2492 0.432861Z" fill="#339DFF"/>
</svg>
