<svg width="115" height="108" viewBox="0 0 115 108" fill="none" xmlns="http://www.w3.org/2000/svg">
<g clip-path="url(#clip0_1_1337)">
<path d="M111.867 1.62484H23.637C21.9095 1.62484 20.5039 2.94468 20.5039 4.56742V49.8388L17.495 47.0131C16.9634 46.5138 16.2557 46.239 15.5016 46.239C14.7476 46.239 14.0399 46.5138 13.5082 47.0131L8.28359 51.9195C7.75172 52.4188 7.45928 53.0835 7.45928 53.7916C7.45928 54.4997 7.75194 55.1644 8.28359 55.6636L20.5041 67.1403V71.6776C20.0626 72.1573 19.8198 72.7627 19.8198 73.4048C19.8198 74.0469 20.0626 74.6522 20.5041 75.1319V80.0697L0.824541 98.5512C0.292666 99.0505 0 99.7154 0 100.424C0 101.132 0.292666 101.796 0.824316 102.296L4.34439 105.601C4.89401 106.117 5.61591 106.375 6.3378 106.375C7.0597 106.375 7.78159 106.117 8.33121 105.601L10.4252 103.635C11.0858 103.014 11.0858 102.009 10.4252 101.388C9.76467 100.768 8.69373 100.768 8.03338 101.388L6.3378 102.981L3.61509 100.424L28.0751 77.4529L30.7975 80.0098L13.8968 95.8816C13.2362 96.502 13.2362 97.5077 13.8968 98.1279C14.5574 98.7483 15.6283 98.7483 16.2887 98.1279L20.5037 94.1694V100.424C20.5037 102.046 21.9091 103.367 23.6368 103.367H85.0052C85.9394 103.367 86.6968 102.655 86.6968 101.778C86.6968 100.901 85.9394 100.19 85.0052 100.19H51.016L53.3555 97.9925L53.9986 98.5962C54.5302 99.0957 55.238 99.3703 55.992 99.3703C56.746 99.3703 57.4537 99.0955 57.9854 98.5962L63.21 93.6896C64.3093 92.6572 64.3093 90.9777 63.21 89.9454L62.567 89.3415L111.617 43.2772V100.19H95.605C94.6708 100.19 93.9134 100.901 93.9134 101.778C93.9134 102.655 94.6708 103.367 95.605 103.367H111.867C113.594 103.367 115 102.047 115 100.424V4.56721C115 2.94489 113.594 1.62484 111.867 1.62484ZM30.0682 74.8317C29.5366 74.3325 28.8288 74.0576 28.0748 74.0576C27.3208 74.0576 26.6131 74.3325 26.0814 74.8317L25.5174 75.3614L23.4342 73.4048L28.288 68.8466L39.9612 79.8092L35.1076 84.3678L33.0241 82.4112L33.5881 81.8817C34.6873 80.8494 34.6873 79.1699 33.5881 78.1376L30.0682 74.8317ZM46.2322 100.19H23.8868V90.9923L30.6322 84.6574L33.1142 86.9883C33.6458 87.4876 34.3536 87.7624 35.1076 87.7624C35.8616 87.7624 36.5693 87.4876 37.101 86.9883L39.3698 84.8576L50.9639 95.746L46.2322 100.19ZM55.992 95.9755L41.7614 82.6111L42.7517 81.6811C43.2833 81.1818 43.576 80.5171 43.576 79.809C43.576 79.1009 43.2833 78.4362 42.7517 77.937L30.2814 66.2257C29.7497 65.7264 29.042 65.4516 28.288 65.4516C27.534 65.4516 26.8262 65.7264 26.2946 66.2257L25.3043 67.1557L11.0737 53.7914L15.5012 49.6334L60.4193 91.8173L55.992 95.9755ZM60.1753 87.0954L55.2445 82.4647L70.1013 68.5125C70.7618 67.8921 70.7618 66.8864 70.1013 66.266C69.4407 65.6454 68.3697 65.6456 67.7092 66.266L52.8524 80.2182L30.8218 59.5289L38.8868 51.9545C39.5474 51.3342 39.5474 50.3284 38.8868 49.7083C38.2263 49.0879 37.1553 49.0879 36.495 49.7083L28.4299 57.2826L26.0042 55.0043L53.157 29.5042C53.8175 28.8839 53.8175 27.8781 53.157 27.258C52.4964 26.6376 51.4254 26.6376 50.7651 27.258L23.8865 52.5V4.80177H74.6761L57.4766 20.9545C56.8161 21.5749 56.8161 22.5806 57.4766 23.2008C58.1372 23.8212 59.2082 23.8212 59.8685 23.2008L79.4601 4.80156H111.617V38.7849H111.617L60.1753 87.0954Z" fill="#339DFF"/>
<path d="M15.4352 35.636C12.3564 34.7355 11.9856 34.387 11.0265 31.4953C10.7107 30.5442 9.78601 29.9048 8.72473 29.9048C7.66322 29.9048 6.73806 30.5442 6.4227 31.4957C5.4643 34.387 5.09347 34.7353 2.0152 35.6358C1.00131 35.9319 0.320068 36.8004 0.320068 37.7975C0.319844 38.7944 1.00108 39.6634 2.0143 39.9594C5.09324 40.8597 5.46385 41.2079 6.42248 44.0992C6.73783 45.051 7.66277 45.6905 8.72473 45.6905C9.78578 45.6905 10.7109 45.0514 11.0265 44.0997C11.9856 41.2079 12.3564 40.8599 15.4343 39.9598C16.4479 39.6638 17.1292 38.795 17.1292 37.7975C17.1289 36.8004 16.4479 35.9317 15.4352 35.636ZM8.72495 40.8384C7.97408 39.3698 7.05094 38.5026 5.48676 37.7973C7.05094 37.0919 7.97386 36.2251 8.72495 34.7562C9.47604 36.2249 10.3987 37.0917 11.9627 37.7973C10.399 38.5026 9.47582 39.3696 8.72495 40.8384Z" fill="#339DFF"/>
<path d="M84.7186 18.3724C80.5914 17.1652 80.0335 16.6412 78.7481 12.7653C78.4062 11.7334 77.4031 11.0402 76.252 11.0402C75.1009 11.0402 74.0975 11.7336 73.7559 12.7655C72.4711 16.6412 71.9132 17.1654 67.786 18.3724C66.6868 18.6937 65.9485 19.6355 65.9485 20.7163C65.9485 21.7978 66.687 22.7403 67.7856 23.0607C71.9132 24.2677 72.4711 24.7917 73.7557 28.667C74.0975 29.6993 75.1006 30.3929 76.252 30.3929C77.4031 30.3929 78.4062 29.6995 78.7481 28.6676C80.0335 24.7917 80.5914 24.2677 84.7177 23.0609C85.8172 22.7401 86.5557 21.7978 86.5557 20.7161C86.5557 19.6351 85.8172 18.6932 84.7186 18.3724ZM76.2522 25.7371C75.1103 23.0327 73.7862 21.7892 70.9058 20.7166C73.7858 19.6437 75.1101 18.4 76.252 15.6956C77.3944 18.3998 78.7187 19.6435 81.5984 20.7163C78.7189 21.7892 77.3946 23.0327 76.2522 25.7371Z" fill="#339DFF"/>
<path d="M83.8714 52.2383C81.5229 51.5513 81.3072 51.3488 80.5757 49.143C80.2792 48.2486 79.4097 47.6476 78.4122 47.6476C77.4148 47.6476 76.5453 48.2486 76.2488 49.143C75.5177 51.3485 75.3021 51.551 72.954 52.2379C72.0012 52.5161 71.3611 53.3326 71.3611 54.2694C71.3611 55.2066 72.0012 56.0233 72.9533 56.3014C75.3021 56.9882 75.5177 57.1907 76.2488 59.3962C76.5451 60.2908 77.4145 60.8918 78.4122 60.8918C79.4097 60.8918 80.2794 60.2908 80.5755 59.3967C81.307 57.1909 81.5226 56.9884 83.8703 56.3018C84.823 56.0236 85.4632 55.207 85.4632 54.2696C85.4636 53.3326 84.8233 52.5161 83.8714 52.2383ZM78.4122 56.0217C77.9334 55.2636 77.3539 54.7193 76.5466 54.2696C77.3539 53.8199 77.9336 53.2755 78.4122 52.5176C78.8911 53.2755 79.4706 53.8199 80.2779 54.2696C79.4708 54.7193 78.8913 55.2636 78.4122 56.0217Z" fill="#339DFF"/>
<path d="M79.9045 34.3132C79.244 33.6926 78.173 33.6928 77.5127 34.3132L53.004 57.3298C52.3434 57.9502 52.3434 58.956 53.004 59.5761C53.3342 59.8864 53.7672 60.0414 54.2 60.0414C54.6331 60.0414 55.0659 59.8864 55.3961 59.5761L79.9045 36.5597C80.5651 35.9395 80.5651 34.9336 79.9045 34.3132Z" fill="#339DFF"/>
</g>
<defs>
<clipPath id="clip0_1_1337">
<rect width="115" height="108" fill="white"/>
</clipPath>
</defs>
</svg>
