<svg width="115" height="108" viewBox="0 0 115 108" fill="none" xmlns="http://www.w3.org/2000/svg">
<g clip-path="url(#clip0_1_1321)">
<path d="M54.9925 64.9688H42.8266V38.9532C42.8266 37.7882 41.821 36.8438 40.5805 36.8438C39.3399 36.8438 38.3344 37.7882 38.3344 38.9532V53.5079H32.9437V4.21875H38.3344V19.9688C38.3344 21.1338 39.3399 22.0782 40.5805 22.0782C41.821 22.0782 42.8266 21.1338 42.8266 19.9688V2.10938C42.8266 0.944367 41.821 0 40.5805 0H30.6976C29.4571 0 28.4516 0.944367 28.4516 2.10938V64.9688H16.2856C11.8475 64.9688 8.23671 68.3598 8.23671 72.5277V78.0872C8.23671 87.5574 5.50142 96.7931 0.326641 104.796C-0.0945012 105.447 -0.108876 106.261 0.288907 106.925C0.68669 107.589 1.43509 108 2.24638 108H52.5589C53.3437 108 54.0714 107.615 54.4786 106.985C60.0804 98.3226 63.0412 88.3299 63.0412 78.0872V72.5277C63.0414 68.3598 59.4308 64.9688 54.9925 64.9688ZM32.9437 57.7266H38.3344V64.9688H32.9437V57.7266ZM16.2856 69.1875H54.9925C56.9536 69.1875 58.5492 70.6858 58.5492 72.5277V75.9639H12.7289V72.5277C12.7289 70.6858 14.3243 69.1875 16.2856 69.1875ZM51.2779 103.781H39.6225C41.5413 100.302 43.0741 96.6064 44.192 92.7528C44.5181 91.6287 43.8121 90.4694 42.6152 90.1631C41.4176 89.8564 40.1838 90.52 39.8577 91.6439C38.6127 95.9363 36.8129 100.013 34.5046 103.781H22.8516C24.7704 100.302 26.3032 96.6066 27.421 92.7528C27.7472 91.6287 27.0412 90.4694 25.8443 90.1631C24.6469 89.8564 23.4127 90.5198 23.0868 91.6439C21.8417 95.9365 20.042 100.013 17.7339 103.781H6.08473C10.101 96.5153 12.3581 88.4623 12.6869 80.1965H58.5036C58.1456 88.5288 55.669 96.6201 51.2779 103.781Z" fill="#339DFF"/>
<path d="M77.9399 81.7934C75.7374 81.7934 73.6667 82.5987 72.1095 84.0616C71.2324 84.8853 71.2324 86.2209 72.1095 87.0446C72.9868 87.8684 74.409 87.8684 75.2861 87.0446C75.995 86.3789 76.9377 86.0123 77.9399 86.0123C78.9426 86.0123 79.885 86.3789 80.5939 87.0449C81.3027 87.7106 81.6933 88.5959 81.6933 89.5373C81.6933 90.4789 81.303 91.364 80.5939 92.0297C79.7168 92.8534 79.7168 94.1891 80.5939 95.0128C81.0325 95.4248 81.6073 95.6306 82.1821 95.6306C82.7569 95.6306 83.3316 95.4246 83.7703 95.0128C85.3277 93.5502 86.1853 91.6055 86.1853 89.5371C86.1853 87.4686 85.3277 85.524 83.7703 84.0616C82.2131 82.5989 80.1426 81.7934 77.9399 81.7934Z" fill="#339DFF"/>
<path d="M75.8847 56.1094C77.9902 56.1094 79.7031 57.718 79.7031 59.6953C79.7031 60.8603 80.7089 61.8047 81.9492 61.8047C83.1895 61.8047 84.1953 60.8603 84.1953 59.6953C84.1953 55.3918 80.4672 51.8906 75.8847 51.8906C71.3022 51.8906 67.5742 55.3918 67.5742 59.6953C67.5742 60.8603 68.58 61.8047 69.8203 61.8047C71.0605 61.8047 72.0663 60.8603 72.0663 59.6953C72.0663 57.718 73.779 56.1094 75.8847 56.1094Z" fill="#339DFF"/>
<path d="M106.08 81.2183C107.134 79.4081 107.695 77.3694 107.695 75.2625C107.695 68.4016 101.751 62.8197 94.4455 62.8197C91.011 62.8197 87.7546 64.0489 85.2765 66.2808C84.3812 67.0872 84.3514 68.4225 85.2098 69.2633C86.0681 70.104 87.4903 70.1319 88.3856 69.3257C90.0234 67.8508 92.1756 67.0385 94.4455 67.0385C99.2742 67.0385 103.203 70.7278 103.203 75.2625C103.203 77.3717 102.351 79.3783 100.804 80.9127C100.239 81.474 100.045 82.2808 100.3 83.016C100.555 83.7509 101.217 84.2959 102.026 84.4368C106.941 85.2924 110.508 89.3249 110.508 94.0254C110.508 99.4047 105.848 103.781 100.12 103.781C96.4681 103.781 93.1507 102.031 91.2451 99.0999C90.5987 98.1058 89.2166 97.7915 88.1578 98.3986C87.0988 99.0056 86.7646 100.304 87.411 101.298C90.1387 105.495 94.8898 108 100.12 108C108.325 108 115 101.731 115 94.0254C115 88.3748 111.4 83.3978 106.08 81.2183Z" fill="#339DFF"/>
<path d="M40.5802 27.3523C39.9895 27.3523 39.41 27.5759 38.9922 27.9703C38.5744 28.3627 38.3341 28.9048 38.3341 29.4617C38.3341 30.0164 38.5744 30.5606 38.9922 30.953C39.41 31.3453 39.9895 31.571 40.5802 31.571C41.1709 31.571 41.7504 31.3453 42.1682 30.953C42.586 30.5606 42.8263 30.0164 42.8263 29.4617C42.8263 28.9048 42.586 28.3627 42.1682 27.9703C41.7504 27.5759 41.1709 27.3523 40.5802 27.3523Z" fill="#339DFF"/>
</g>
<defs>
<clipPath id="clip0_1_1321">
<rect width="115" height="108" fill="white"/>
</clipPath>
</defs>
</svg>
