<svg viewBox="0 0 152 96" fill="none" xmlns="http://www.w3.org/2000/svg">
<path d="M128.935 65.6539V57.6527C128.935 56.8746 127.88 56.2436 126.579 56.2436C125.278 56.2436 124.224 56.8746 124.224 57.6527V65.6539C111.307 66.3675 101.158 72.8833 101.158 80.7932C101.158 85.8997 105.392 90.423 111.865 93.1821H89.18C83.2235 93.1821 77.6252 91.6095 73.8214 88.8677C70.0169 86.1259 68.4644 82.5446 69.5618 79.0423L74.0104 64.8429H98.8329C103.595 64.8429 107.469 62.5252 107.469 59.6766V41.0366C110.654 40.5863 113.965 40.3476 117.355 40.3476C121.143 40.3476 124.224 42.1909 124.224 44.4564V52.0168C124.224 52.7949 125.279 53.4259 126.579 53.4259C127.88 53.4259 128.935 52.7949 128.935 52.0168V44.4563C128.935 41.634 126.097 39.2023 122.04 38.1238V30.6501C122.04 29.8719 120.986 29.241 119.685 29.241H119.649V10.3056C119.649 4.623 111.921 0 102.422 0C95.6346 0 89.4605 2.39531 86.692 6.10275L73.302 24.0354C72.7714 24.7459 73.3042 25.5791 74.4918 25.8966C75.6797 26.2144 77.0723 25.8953 77.603 25.1848L90.9929 7.25213C93.0042 4.5585 97.4904 2.81813 102.421 2.81813C109.323 2.81813 114.938 6.177 114.938 10.3056V29.2412H110.227V10.3056C110.227 7.73081 106.726 5.63606 102.421 5.63606C99.3463 5.63606 96.5489 6.72131 95.2942 8.40131L41.5052 80.4379H36.3461L73.7596 30.3319C74.2903 29.6214 73.7574 28.7882 72.5695 28.4707C71.3813 28.1527 69.989 28.4721 69.4584 29.1825L31.1869 80.4379H29.9169C26.8866 80.4379 24.4211 81.9128 24.4211 83.7255V86.6704H16.4279C8.73368 86.6704 2.00954 89.7818 0.0756471 94.2368C-0.107713 94.6588 0.0464974 95.1079 0.492203 95.4529C0.938221 95.7977 1.62621 95.9998 2.35526 95.9998H39.3964C40.6972 95.9998 41.7519 95.3691 41.7519 94.5908C41.7519 93.8124 40.6972 93.1817 39.3964 93.1817H5.82813C7.95197 90.9407 11.9636 89.4881 16.4279 89.4881H56.3627C59.7324 89.4881 62.6778 90.8509 63.5247 92.8022L63.6896 93.1817H48.8183C47.5176 93.1817 46.4628 93.8126 46.4628 94.5908C46.4628 95.3689 47.5176 95.9998 48.8183 95.9998H66.7346C67.4636 95.9998 68.1516 95.7979 68.5977 95.4529C69.0437 95.1079 69.1976 94.6588 69.0142 94.2366L68.0839 92.094C66.6979 88.9005 61.8779 86.6702 56.3624 86.6702H51.1735V83.7253C51.1735 82.1061 49.2048 80.7598 46.6252 80.49L99.5952 9.5505C100.093 8.88431 101.202 8.454 102.421 8.454C104.128 8.454 105.516 9.28463 105.516 10.3056V29.2412H105.114C103.813 29.2412 102.758 29.8719 102.758 30.6502V38.8978C86.4666 42.0354 73.775 50.2959 70.4836 60.8014L64.9314 78.5233C63.5752 82.8521 65.4943 87.2786 70.1962 90.6675C74.8987 94.0564 81.8177 96 89.18 96H126.579C140.596 96 152 89.1782 152 80.793C152 72.8831 141.851 66.3675 128.935 65.6539ZM29.1314 86.6706V83.7257C29.1314 83.4668 29.4837 83.256 29.9166 83.256H45.6777C46.1105 83.256 46.4628 83.4668 46.4628 83.7257V86.6706H29.1314ZM107.469 32.0591H117.329V37.5296C113.96 37.5308 110.661 37.7445 107.469 38.1488V32.0591ZM102.758 41.8755V59.6764C102.758 60.9712 100.997 62.0246 98.8326 62.0246H74.893L75.1137 61.3204C77.9825 52.1651 88.7732 44.9019 102.758 41.8755ZM126.579 93.1821C115.159 93.1821 105.869 87.6244 105.869 80.7932C105.869 73.962 115.16 68.4043 126.579 68.4043C137.999 68.4043 147.289 73.962 147.289 80.7932C147.289 87.6244 137.999 93.1821 126.579 93.1821Z" fill="#339DFF"/>
<path d="M120.587 72.4732C114.754 72.4732 110.008 75.3123 110.008 78.8018C110.008 82.2916 114.754 85.1305 120.587 85.1305C126.421 85.1305 131.167 82.2914 131.167 78.8018C131.167 75.3123 126.421 72.4732 120.587 72.4732ZM120.587 82.3126C117.351 82.3126 114.718 80.7376 114.718 78.8018C114.718 76.8661 117.351 75.2911 120.587 75.2911C123.823 75.2911 126.456 76.8661 126.456 78.8018C126.456 80.7378 123.823 82.3126 120.587 82.3126Z" fill="#339DFF"/>
</svg>
