<svg viewBox="0 0 75 70" fill="none" xmlns="http://www.w3.org/2000/svg">
<g clip-path="url(#clip0_21_536)">
<path d="M64.0122 10.247C49.3653 -3.41923 25.6216 -3.41594 10.9791 10.2546C-3.66331 23.9251 -3.65979 46.0858 10.9872 59.7521C25.6342 73.4184 49.3778 73.4151 64.0202 59.7446C71.0524 53.1792 75.0019 44.2754 74.9997 34.992C74.9976 25.7102 71.0453 16.8093 64.0122 10.247ZM56.7921 48.7542C56.7905 48.7557 56.7889 48.7573 56.7871 48.7588V48.7472L54.8871 50.5088C52.4298 52.8312 48.851 53.7868 45.4495 53.0288C42.0225 52.1727 38.7647 50.8099 35.7996 48.9922C33.0448 47.349 30.4919 45.4281 28.1871 43.2638C26.0664 41.299 24.1613 39.1416 22.4995 36.8238C20.682 34.3298 19.2433 31.6129 18.2245 28.7504C17.0566 25.3877 18.0244 21.6978 20.7246 19.2188L22.9495 17.1422C23.5681 16.5622 24.5733 16.5602 25.1946 17.1375C25.1962 17.139 25.1979 17.1405 25.1995 17.1422L32.2245 23.6988C32.8459 24.2762 32.8481 25.2143 32.2295 25.7942C32.2279 25.7957 32.2262 25.7972 32.2245 25.7988L28.0995 29.6488C26.9159 30.7415 26.7671 32.4778 27.7495 33.7322C29.2415 35.6432 30.8925 37.4415 32.6871 39.1106C34.6879 40.9861 36.8631 42.6922 39.187 44.2089C40.5299 45.0831 42.3504 44.9357 43.512 43.8589L47.4994 40.0789C48.118 39.499 49.1232 39.4969 49.7444 40.0743C49.7461 40.0758 49.7477 40.0773 49.7494 40.0789L56.787 46.6589C57.4085 47.2362 57.4107 48.1742 56.7921 48.7542Z" fill="#2E8DE5"/>
</g>
<defs>
<clipPath id="clip0_21_536">
<rect width="75" height="70" fill="white"/>
</clipPath>
</defs>
</svg>
