<svg width="75" height="70" viewBox="0 0 75 70" fill="none" xmlns="http://www.w3.org/2000/svg">
<path d="M37.5 15.3125C29.2606 15.3125 24.3411 20.1195 24.3411 28.1706C24.3411 32.7523 30.8637 43.3377 37.4977 51.7891C44.0918 43.3092 50.659 32.8552 50.659 28.1706C50.659 20.1195 45.7395 15.3125 37.5 15.3125ZM37.486 33.6798C34.2938 33.6798 31.7063 31.2648 31.7063 28.2855C31.7063 25.3061 34.2938 22.8911 37.486 22.8911C40.6782 22.8911 43.2657 25.3061 43.2657 28.2855C43.2657 31.2648 40.6782 33.6798 37.486 33.6798Z" fill="#2E8DE5"/>
<path d="M37.5 0C16.7895 0 0 15.6702 0 35C0 54.3298 16.7895 70 37.5 70C58.2105 70 75 54.3298 75 35C75 15.6702 58.2105 0 37.5 0ZM39.6961 56.3719L37.5 59.0625L35.3168 56.3719C33.7102 54.4119 19.6535 36.8966 19.6535 28.1706C19.6535 17.7023 26.6543 10.9375 37.5 10.9375C48.3457 10.9375 55.3465 17.7023 55.3465 28.1706C55.3465 36.8834 41.2887 54.3988 39.6961 56.3719Z" fill="#2E8DE5"/>
</svg>
